<svg width="335" height="84" viewBox="0 0 335 84" fill="none" xmlns="http://www.w3.org/2000/svg">
<g id="text">
<path id="C" d="M43.5938 50.7578C42.9609 56.1719 40.957 60.3555 37.582 63.3086C34.2305 66.2383 29.7656 67.7031 24.1875 67.7031C18.1406 67.7031 13.2891 65.5352 9.63281 61.1992C6 56.8633 4.18359 51.0625 4.18359 43.7969V38.875C4.18359 34.1172 5.02734 29.9336 6.71484 26.3242C8.42578 22.7148 10.8398 19.9492 13.957 18.0273C17.0742 16.082 20.6836 15.1094 24.7852 15.1094C30.2227 15.1094 34.582 16.6328 37.8633 19.6797C41.1445 22.7031 43.0547 26.8984 43.5938 32.2656H36.8086C36.2227 28.1875 34.9453 25.2344 32.9766 23.4062C31.0312 21.5781 28.3008 20.6641 24.7852 20.6641C20.4727 20.6641 17.0859 22.2578 14.625 25.4453C12.1875 28.6328 10.9688 33.168 10.9688 39.0508V44.0078C10.9688 49.5625 12.1289 53.9805 14.4492 57.2617C16.7695 60.543 20.0156 62.1836 24.1875 62.1836C27.9375 62.1836 30.8086 61.3398 32.8008 59.6523C34.8164 57.9414 36.1523 54.9766 36.8086 50.7578H43.5938Z" fill="#03AA14"/>
<path id="O" d="M95.3164 43.0586C95.3164 48.0742 94.4727 52.457 92.7852 56.207C91.0977 59.9336 88.707 62.7812 85.6133 64.75C82.5195 66.7188 78.9102 67.7031 74.7852 67.7031C70.7539 67.7031 67.1797 66.7188 64.0625 64.75C60.9453 62.7578 58.5195 59.9336 56.7852 56.2773C55.0742 52.5977 54.1953 48.3438 54.1484 43.5156V39.8242C54.1484 34.9023 55.0039 30.5547 56.7148 26.7812C58.4258 23.0078 60.8398 20.125 63.957 18.1328C67.0977 16.1172 70.6836 15.1094 74.7148 15.1094C78.8164 15.1094 82.4258 16.1055 85.543 18.0977C88.6836 20.0664 91.0977 22.9375 92.7852 26.7109C94.4727 30.4609 95.3164 34.832 95.3164 39.8242V43.0586ZM88.6016 39.7539C88.6016 33.6836 87.3828 29.0312 84.9453 25.7969C82.5078 22.5391 79.0977 20.9102 74.7148 20.9102C70.4492 20.9102 67.0859 22.5391 64.625 25.7969C62.1875 29.0312 60.9336 33.5312 60.8633 39.2969V43.0586C60.8633 48.9414 62.0938 53.5703 64.5547 56.9453C67.0391 60.2969 70.4492 61.9727 74.7852 61.9727C79.1445 61.9727 82.5195 60.3906 84.9102 57.2266C87.3008 54.0391 88.5312 49.4805 88.6016 43.5508V39.7539Z" fill="#03AA14"/>
<path id="D" d="M105.941 67V15.8125H120.391C124.844 15.8125 128.781 16.7969 132.203 18.7656C135.625 20.7344 138.262 23.5352 140.113 27.168C141.988 30.8008 142.938 34.9727 142.961 39.6836V42.9531C142.961 47.7812 142.023 52.0117 140.148 55.6445C138.297 59.2773 135.637 62.0664 132.168 64.0117C128.723 65.957 124.703 66.9531 120.109 67H105.941ZM112.691 21.3672V61.4805H119.793C124.996 61.4805 129.039 59.8633 131.922 56.6289C134.828 53.3945 136.281 48.7891 136.281 42.8125V39.8242C136.281 34.0117 134.91 29.5 132.168 26.2891C129.449 23.0547 125.582 21.4141 120.566 21.3672H112.691Z" fill="#03AA14"/>
<path id="I" d="M160.184 67H153.434V15.8125H160.184V67Z" fill="#03AA14"/>
<path id="N" d="M215.281 67H208.496L182.727 27.5547V67H175.941V15.8125H182.727L208.566 55.4336V15.8125H215.281V67Z" fill="#03AA14"/>
<path id="G" d="M265.734 60.2852C264 62.7695 261.574 64.6328 258.457 65.875C255.363 67.0938 251.754 67.7031 247.629 67.7031C243.457 67.7031 239.754 66.7305 236.52 64.7852C233.285 62.8164 230.777 60.0273 228.996 56.418C227.238 52.8086 226.336 48.625 226.289 43.8672V39.4023C226.289 31.6914 228.082 25.7148 231.668 21.4727C235.277 17.2305 240.34 15.1094 246.855 15.1094C252.199 15.1094 256.5 16.4805 259.758 19.2227C263.016 21.9414 265.008 25.8086 265.734 30.8242H258.984C257.719 24.0508 253.688 20.6641 246.891 20.6641C242.367 20.6641 238.934 22.2578 236.59 25.4453C234.27 28.6094 233.098 33.2031 233.074 39.2266V43.4102C233.074 49.1523 234.387 53.7227 237.012 57.1211C239.637 60.4961 243.188 62.1836 247.664 62.1836C250.195 62.1836 252.41 61.9023 254.309 61.3398C256.207 60.7773 257.777 59.8281 259.02 58.4922V46.9961H247.172V41.5117H265.734V60.2852Z" fill="#03AA14"/>
<path id="." d="M277.062 63.5898C277.062 62.4648 277.391 61.5273 278.047 60.7773C278.727 60.0273 279.734 59.6523 281.07 59.6523C282.406 59.6523 283.414 60.0273 284.094 60.7773C284.797 61.5273 285.148 62.4648 285.148 63.5898C285.148 64.668 284.797 65.5703 284.094 66.2969C283.414 67.0234 282.406 67.3867 281.07 67.3867C279.734 67.3867 278.727 67.0234 278.047 66.2969C277.391 65.5703 277.062 64.668 277.062 63.5898Z" fill="#03AA14"/>
<path id="._2" d="M299.062 63.5898C299.062 62.4648 299.391 61.5273 300.047 60.7773C300.727 60.0273 301.734 59.6523 303.07 59.6523C304.406 59.6523 305.414 60.0273 306.094 60.7773C306.797 61.5273 307.148 62.4648 307.148 63.5898C307.148 64.668 306.797 65.5703 306.094 66.2969C305.414 67.0234 304.406 67.3867 303.07 67.3867C301.734 67.3867 300.727 67.0234 300.047 66.2969C299.391 65.5703 299.062 64.668 299.062 63.5898Z" fill="#03AA14"/>
<path id="._3" d="M321.062 63.5898C321.062 62.4648 321.391 61.5273 322.047 60.7773C322.727 60.0273 323.734 59.6523 325.07 59.6523C326.406 59.6523 327.414 60.0273 328.094 60.7773C328.797 61.5273 329.148 62.4648 329.148 63.5898C329.148 64.668 328.797 65.5703 328.094 66.2969C327.414 67.0234 326.406 67.3867 325.07 67.3867C323.734 67.3867 322.727 67.0234 322.047 66.2969C321.391 65.5703 321.062 64.668 321.062 63.5898Z" fill="#03AA14"/>
</g>
</svg>
