<svg id="typing-loader-css" xmlns="http://www.w3.org/2000/svg" xmlns:xlink="http://www.w3.org/1999/xlink" viewBox="0 0 1920 1080" shape-rendering="geometricPrecision" text-rendering="geometricPrecision" width="1920" height="1080"><style><![CDATA[#typing-loader-css-right-hand_to {animation: typing-loader-css-right-hand_to__to 2500ms linear infinite normal forwards}@keyframes typing-loader-css-right-hand_to__to { 0% {transform: translate(1216.324768px,974.887299px)} 20% {transform: translate(1216.324768px,1054.887299px)} 40% {transform: translate(1140.324768px,1054.887299px)} 56% {transform: translate(1140.324768px,999.887299px)} 72% {transform: translate(1140.324768px,1042.887299px)} 100% {transform: translate(1216.324768px,974.887299px)}} #typing-loader-css-right-hand_tr {animation: typing-loader-css-right-hand_tr__tr 2500ms linear infinite normal forwards}@keyframes typing-loader-css-right-hand_tr__tr { 0% {transform: rotate(0deg)} 24% {transform: rotate(0deg)} 40% {transform: rotate(6.925449deg)} 56% {transform: rotate(-1.094397deg)} 72% {transform: rotate(5.893368deg)} 100% {transform: rotate(0deg)}} #typing-loader-css-thumb_to {animation: typing-loader-css-thumb_to__to 2500ms linear infinite normal forwards}@keyframes typing-loader-css-thumb_to__to { 0% {transform: translate(1118.370667px,809.370667px)} 52% {transform: translate(1118.370667px,809.370667px)} 60% {transform: translate(1118.017608px,778.372682px)} 68% {transform: translate(1118.370667px,809.370667px)} 100% {transform: translate(1118.370667px,809.370667px)}} #typing-loader-css-thumb_tr {animation: typing-loader-css-thumb_tr__tr 2500ms linear infinite normal forwards}@keyframes typing-loader-css-thumb_tr__tr { 0% {transform: rotate(0deg)} 52% {transform: rotate(0deg)} 60% {transform: rotate(12.447639deg)} 68% {transform: rotate(0deg)} 100% {transform: rotate(0deg)}} #typing-loader-css-index-finger_to {animation: typing-loader-css-index-finger_to__to 2500ms linear infinite normal forwards}@keyframes typing-loader-css-index-finger_to__to { 0% {transform: translate(1109.235413px,655.185364px)} 8% {transform: translate(1106.235413px,660.185364px)} 16% {transform: translate(1109.235413px,655.185364px)} 100% {transform: translate(1109.235413px,655.185364px)}} #typing-loader-css-index-finger_tr {animation: typing-loader-css-index-finger_tr__tr 2500ms linear infinite normal forwards}@keyframes typing-loader-css-index-finger_tr__tr { 0% {transform: rotate(0deg)} 8% {transform: rotate(-6.003371deg)} 16% {transform: rotate(0deg)} 100% {transform: rotate(0deg)}} #typing-loader-css-middle-finger_to {animation: typing-loader-css-middle-finger_to__to 2500ms linear infinite normal forwards}@keyframes typing-loader-css-middle-finger_to__to { 0% {transform: translate(1156.785461px,671.835358px)} 24% {transform: translate(1156.785461px,671.835358px)} 36% {transform: translate(1150.465813px,650.177525px)} 48% {transform: translate(1156.785461px,671.835358px)} 100% {transform: translate(1156.785461px,671.835358px)}} #typing-loader-css-middle-finger_tr {animation: typing-loader-css-middle-finger_tr__tr 2500ms linear infinite normal forwards}@keyframes typing-loader-css-middle-finger_tr__tr { 0% {transform: rotate(0deg)} 24% {transform: rotate(0deg)} 36% {transform: rotate(-5.289431deg)} 48% {transform: rotate(0deg)} 100% {transform: rotate(0deg)}} #typing-loader-css-middle-finger_ts {animation: typing-loader-css-middle-finger_ts__ts 2500ms linear infinite normal forwards}@keyframes typing-loader-css-middle-finger_ts__ts { 0% {transform: scale(1,1)} 24% {transform: scale(1,1)} 36% {transform: scale(1,1.652126)} 48% {transform: scale(1,1)} 100% {transform: scale(1,1)}} #typing-loader-css-ring-finger_to {animation: typing-loader-css-ring-finger_to__to 2500ms linear infinite normal forwards}@keyframes typing-loader-css-ring-finger_to__to { 0% {transform: translate(1199.635437px,672.685364px)} 68% {transform: translate(1199.635437px,672.685364px)} 76% {transform: translate(1202.387201px,658.38754px)} 84% {transform: translate(1199.635437px,672.685364px)} 100% {transform: translate(1199.635437px,672.685364px)}} #typing-loader-css-ring-finger_tr {animation: typing-loader-css-ring-finger_tr__tr 2500ms linear infinite normal forwards}@keyframes typing-loader-css-ring-finger_tr__tr { 0% {transform: rotate(0deg)} 68% {transform: rotate(0deg)} 76% {transform: rotate(6.328741deg)} 84% {transform: rotate(0deg)} 100% {transform: rotate(0deg)}} #typing-loader-css-pinkie-finger_to {animation: typing-loader-css-pinkie-finger_to__to 2500ms linear infinite normal forwards}@keyframes typing-loader-css-pinkie-finger_to__to { 0% {transform: translate(1243.824829px,688.183899px)} 56% {transform: translate(1243.824829px,688.183899px)} 64% {transform: translate(1257.896285px,689.596007px)} 72% {transform: translate(1243.824829px,688.183899px)} 100% {transform: translate(1243.824829px,688.183899px)}} #typing-loader-css-pinkie-finger_tr {animation: typing-loader-css-pinkie-finger_tr__tr 2500ms linear infinite normal forwards}@keyframes typing-loader-css-pinkie-finger_tr__tr { 0% {transform: rotate(0deg)} 56% {transform: rotate(0deg)} 64% {transform: rotate(22.716584deg)} 72% {transform: rotate(0deg)} 100% {transform: rotate(0deg)}} #typing-loader-css-left-hand_to {animation: typing-loader-css-left-hand_to__to 2500ms linear infinite normal forwards}@keyframes typing-loader-css-left-hand_to__to { 0% {transform: translate(758.299316px,1010.78537px)} 20% {transform: translate(743.299316px,1039.78537px)} 36% {transform: translate(787.299316px,1039.78537px)} 52% {transform: translate(787.299316px,976.78537px)} 72% {transform: translate(787.299316px,1045.961841px)} 100% {transform: translate(758.299316px,1010.78537px)}} #typing-loader-css-left-hand_tr {animation: typing-loader-css-left-hand_tr__tr 2500ms linear infinite normal forwards}@keyframes typing-loader-css-left-hand_tr__tr { 0% {transform: rotate(0deg)} 28.4% {transform: rotate(-3.169262deg)} 60% {transform: rotate(0deg)} 80% {transform: rotate(-3.169262deg)} 100% {transform: rotate(0deg)}} #typing-loader-css-thumb2_to {animation: typing-loader-css-thumb2_to__to 2500ms linear infinite normal forwards}@keyframes typing-loader-css-thumb2_to__to { 0% {transform: translate(856.22934px,844.970703px)} 52% {transform: translate(863.22934px,826.970703px)} 100% {transform: translate(863.22934px,826.970703px)}} #typing-loader-css-thumb2_tr {animation: typing-loader-css-thumb2_tr__tr 2500ms linear infinite normal forwards}@keyframes typing-loader-css-thumb2_tr__tr { 0% {transform: rotate(0deg)} 48% {transform: rotate(0deg)} 52% {transform: rotate(9.341531deg)} 56% {transform: rotate(0deg)} 100% {transform: rotate(0deg)}} #typing-loader-css-index-finger2_to {animation: typing-loader-css-index-finger2_to__to 2500ms linear infinite normal forwards}@keyframes typing-loader-css-index-finger2_to__to { 0% {transform: translate(865.364594px,700.7854px)} 28% {transform: translate(865.364594px,700.7854px)} 40% {transform: translate(868.364594px,723.7854px)} 52% {transform: translate(865.364594px,700.7854px)} 100% {transform: translate(865.364594px,700.7854px)}} #typing-loader-css-index-finger2_tr {animation: typing-loader-css-index-finger2_tr__tr 2500ms linear infinite normal forwards}@keyframes typing-loader-css-index-finger2_tr__tr { 0% {transform: rotate(5.044275deg)} 28% {transform: rotate(5.044275deg)} 40% {transform: rotate(12.39918deg)} 52% {transform: rotate(5.044275deg)} 100% {transform: rotate(5.044275deg)}} #typing-loader-css-middle-finger2_to {animation: typing-loader-css-middle-finger2_to__to 2500ms linear infinite normal forwards}@keyframes typing-loader-css-middle-finger2_to__to { 0% {transform: translate(817.814606px,707.435394px)} 20% {transform: translate(817.814606px,707.435394px)} 28% {transform: translate(817.814606px,683.435394px)} 36% {transform: translate(817.814606px,707.435394px)} 100% {transform: translate(817.814606px,707.435394px)}} #typing-loader-css-ring-finger2_to {animation: typing-loader-css-ring-finger2_to__to 2500ms linear infinite normal forwards}@keyframes typing-loader-css-ring-finger2_to__to { 0% {transform: translate(774.96463px,708.335388px)} 60% {transform: translate(774.96463px,708.335388px)} 64% {transform: translate(778.96463px,691.335388px)} 68% {transform: translate(774.96463px,708.335388px)} 100% {transform: translate(774.96463px,708.335388px)}} #typing-loader-css-ring-finger2_tr {animation: typing-loader-css-ring-finger2_tr__tr 2500ms linear infinite normal forwards}@keyframes typing-loader-css-ring-finger2_tr__tr { 0% {transform: rotate(0deg)} 60% {transform: rotate(0deg)} 64% {transform: rotate(4.532255deg)} 68% {transform: rotate(0deg)} 100% {transform: rotate(0deg)}} #typing-loader-css-pinkie-finger2_to {animation: typing-loader-css-pinkie-finger2_to__to 2500ms linear infinite normal forwards}@keyframes typing-loader-css-pinkie-finger2_to__to { 0% {transform: translate(730.775177px,723.783936px)} 16% {transform: translate(730.775177px,723.783936px)} 20% {transform: translate(721.775177px,723.783936px)} 28% {transform: translate(730.775177px,723.783936px)} 84% {transform: translate(730.775177px,723.783936px)} 92% {transform: translate(721.775177px,715.783936px)} 100% {transform: translate(730.775177px,723.783936px)}} #typing-loader-css-pinkie-finger2_tr {animation: typing-loader-css-pinkie-finger2_tr__tr 2500ms linear infinite normal forwards}@keyframes typing-loader-css-pinkie-finger2_tr__tr { 0% {transform: rotate(0deg)} 16% {transform: rotate(0deg)} 20% {transform: rotate(-12.660996deg)} 28% {transform: rotate(0deg)} 84% {transform: rotate(0deg)} 92% {transform: rotate(-12.332437deg)} 100% {transform: rotate(0deg)}}]]></style><g id="typing-loader-css-laptop"><path id="typing-loader-css-path1" d="M1319.4,518.2L601,518.2C588,518.2,577.4,507.5,577.4,494.3L557.3,109C557.3,93.3,569.8,80.7,585.3,80.7L1336.3,80.7C1351.8,80.7,1364.3,93.4,1364.3,109L1344.2,493.1C1344.2,506.9,1333.1,518.2,1319.4,518.2Z" fill="rgb(255,255,255)" stroke="none" stroke-width="1"/><path id="typing-loader-css-path2" d="M1319.4,530.4L601,530.4C588,530.4,577.4,519.7,577.4,506.5L557.3,121.2C557.3,105.5,569.8,92.9,585.3,92.9L1336.3,92.9C1351.8,92.9,1364.3,105.6,1364.3,121.2L1344.2,505.3C1344.2,519.1,1333.1,530.4,1319.4,530.4Z" fill="rgb(230,230,230)" stroke="none" stroke-width="1"/><path id="typing-loader-css-path3" d="M1309.4,520.2L611,520.2C597.9,520.2,587.3,509.5,587.3,496.3L567.2,128.4C567.2,112.7,579.8,100.1,595.3,100.1L1326.4,100.1C1341.9,100.1,1354.5,112.8,1354.5,128.4L1334.4,495.1C1334.3,509,1323.2,520.2,1309.4,520.2Z" fill="rgb(77,77,77)" stroke="none" stroke-width="1"/><polygon id="typing-loader-css-polygon1" points="1270,463 651.6,463 632,165.6 1289.6,165.6" fill="rgb(102,102,102)" stroke="none" stroke-width="1"/><path id="typing-loader-css-path4" d="M1307.1,1006L614.8,1006C595.3,1006,579.6,990.2,579.6,970.8L579.6,600.5C579.6,581,595.4,565.3,614.8,565.3L1307.1,565.3C1326.6,565.3,1342.3,581.1,1342.3,600.5L1342.3,970.7C1342.3,990.2,1326.5,1006,1307.1,1006Z" opacity="0.1" fill="rgb(0,0,0)" stroke="none" stroke-width="1"/><path id="typing-loader-css-path5" d="M1307.1,987.8L614.8,987.8C595.3,987.8,579.6,972,579.6,952.6L579.6,582.3C579.6,562.8,595.4,547.1,614.8,547.1L1307.1,547.1C1326.6,547.1,1342.3,562.9,1342.3,582.3L1342.3,952.5C1342.3,972,1326.5,987.8,1307.1,987.8Z" fill="rgb(230,230,230)" stroke="none" stroke-width="1"/><path id="typing-loader-css-path6" d="M1307.1,971L614.8,971C595.3,971,579.6,955.2,579.6,935.8L579.6,565.6C579.6,546.1,595.4,530.4,614.8,530.4L1307.1,530.4C1326.6,530.4,1342.3,546.2,1342.3,565.6L1342.3,935.8C1342.3,955.3,1326.5,971,1307.1,971Z" fill="rgb(242,242,242)" stroke="none" stroke-width="1"/><rect id="typing-loader-css-rect1" width="443.1" height="26.6" rx="0" ry="0" transform="matrix(1 0 0 1 739.4 520.2)" fill="rgb(77,77,77)" stroke="none" stroke-width="1"/><path id="typing-loader-css-trackpad" d="M1057.1,933.6L864.8,933.6C859.9,933.6,856,929.7,856,924.8L856,806.3C856,801.4,859.9,797.5,864.8,797.5L1057,797.5C1061.9,797.5,1065.8,801.4,1065.8,806.3L1065.8,924.8C1065.8,929.6,1061.9,933.6,1057.1,933.6Z" fill="rgb(230,230,230)" stroke="none" stroke-width="1"/><path id="typing-loader-css-trackpad2" d="M861,929.7L861,811.2C861,806.3,865.1,803,869.9,803L1062.1,803C1063.2,803,1064.2,803.2,1065.1,803.5C1063.8,800.3,1060.6,798,1057,798L864.8,798C859.9,798,856,801.4,856,806.3L856,924.8C856,928.6,858.3,931.8,861.7,933C861.3,932,861,930.9,861,929.7Z" fill="rgb(204,204,204)" stroke="none" stroke-width="1"/><g id="typing-loader-css-keyboard"><path id="typing-loader-css-path7" d="M699.5,600.5L640.6,600.5C638.3,600.5,636.4,598.6,636.4,596.3L636.4,580.7C636.4,578.4,638.3,576.5,640.6,576.5L699.5,576.5C701.8,576.5,703.7,578.4,703.7,580.7L703.7,596.3C703.7,598.6,701.8,600.5,699.5,600.5Z" fill="rgb(77,77,77)" stroke="none" stroke-width="1"/><path id="typing-loader-css-path8" d="M783.2,600.5L724.3,600.5C722,600.5,720.1,598.6,720.1,596.3L720.1,580.7C720.1,578.4,722,576.5,724.3,576.5L783.2,576.5C785.5,576.5,787.4,578.4,787.4,580.7L787.4,596.3C787.4,598.6,785.5,600.5,783.2,600.5Z" fill="rgb(77,77,77)" stroke="none" stroke-width="1"/><path id="typing-loader-css-path9" d="M866.9,600.5L808,600.5C805.7,600.5,803.8,598.6,803.8,596.3L803.8,580.7C803.8,578.4,805.7,576.5,808,576.5L866.9,576.5C869.2,576.5,871.1,578.4,871.1,580.7L871.1,596.3C871.1,598.6,869.2,600.5,866.9,600.5Z" fill="rgb(77,77,77)" stroke="none" stroke-width="1"/><path id="typing-loader-css-path10" d="M950.6,600.5L891.7,600.5C889.4,600.5,887.5,598.6,887.5,596.3L887.5,580.7C887.5,578.4,889.4,576.5,891.7,576.5L950.6,576.5C952.9,576.5,954.8,578.4,954.8,580.7L954.8,596.3C954.8,598.6,952.9,600.5,950.6,600.5Z" fill="rgb(77,77,77)" stroke="none" stroke-width="1"/><path id="typing-loader-css-path11" d="M1034.3,600.5L975.4,600.5C973.1,600.5,971.2,598.6,971.2,596.3L971.2,580.7C971.2,578.4,973.1,576.5,975.4,576.5L1034.3,576.5C1036.6,576.5,1038.5,578.4,1038.5,580.7L1038.5,596.3C1038.5,598.6,1036.6,600.5,1034.3,600.5Z" fill="rgb(77,77,77)" stroke="none" stroke-width="1"/><path id="typing-loader-css-path12" d="M1118,600.5L1059.1,600.5C1056.8,600.5,1054.9,598.6,1054.9,596.3L1054.9,580.7C1054.9,578.4,1056.8,576.5,1059.1,576.5L1118,576.5C1120.3,576.5,1122.2,578.4,1122.2,580.7L1122.2,596.3C1122.2,598.6,1120.3,600.5,1118,600.5Z" fill="rgb(77,77,77)" stroke="none" stroke-width="1"/><path id="typing-loader-css-path13" d="M1201.7,600.5L1142.8,600.5C1140.5,600.5,1138.6,598.6,1138.6,596.3L1138.6,580.7C1138.6,578.4,1140.5,576.5,1142.8,576.5L1201.7,576.5C1204,576.5,1205.9,578.4,1205.9,580.7L1205.9,596.3C1205.9,598.6,1204,600.5,1201.7,600.5Z" fill="rgb(77,77,77)" stroke="none" stroke-width="1"/><path id="typing-loader-css-path14" d="M1285.4,600.5L1226.5,600.5C1224.2,600.5,1222.3,598.6,1222.3,596.3L1222.3,580.7C1222.3,578.4,1224.2,576.5,1226.5,576.5L1285.4,576.5C1287.7,576.5,1289.6,578.4,1289.6,580.7L1289.6,596.3C1289.6,598.6,1287.7,600.5,1285.4,600.5Z" fill="rgb(77,77,77)" stroke="none" stroke-width="1"/><path id="typing-loader-css-path15" d="M727.3,657.3L642.5,657.3C639.1,657.3,636.4,654.6,636.4,651.2L636.4,622.1C636.4,618.7,639.1,616,642.5,616L727.3,616C730.7,616,733.4,618.7,733.4,622.1L733.4,651.2C733.5,654.5,730.7,657.3,727.3,657.3Z" fill="rgb(77,77,77)" stroke="none" stroke-width="1"/><path id="typing-loader-css-path16" d="M799.4,657.3L759.5,657.3C757.1,657.3,755.2,655.4,755.2,653L755.2,620.3C755.2,617.9,757.1,616,759.5,616L799.4,616C801.8,616,803.7,617.9,803.7,620.3L803.7,653C803.8,655.3,801.8,657.3,799.4,657.3Z" fill="rgb(77,77,77)" stroke="none" stroke-width="1"/><path id="typing-loader-css-path17" d="M862.9,657.3L823,657.3C820.6,657.3,818.7,655.4,818.7,653L818.7,620.3C818.7,617.9,820.6,616,823,616L862.9,616C865.3,616,867.2,617.9,867.2,620.3L867.2,653C867.2,655.3,865.3,657.3,862.9,657.3Z" fill="rgb(77,77,77)" stroke="none" stroke-width="1"/><path id="typing-loader-css-path18" d="M926.3,657.3L886.4,657.3C884,657.3,882.1,655.4,882.1,653L882.1,620.3C882.1,617.9,884,616,886.4,616L926.3,616C928.7,616,930.6,617.9,930.6,620.3L930.6,653C930.6,655.3,928.7,657.3,926.3,657.3Z" fill="rgb(77,77,77)" stroke="none" stroke-width="1"/><path id="typing-loader-css-path19" d="M989.7,657.3L949.8,657.3C947.4,657.3,945.5,655.4,945.5,653L945.5,620.3C945.5,617.9,947.4,616,949.8,616L989.7,616C992.1,616,994,617.9,994,620.3L994,653C994.1,655.3,992.1,657.3,989.7,657.3Z" fill="rgb(77,77,77)" stroke="none" stroke-width="1"/><path id="typing-loader-css-path20" d="M1053.2,657.3L1013.3,657.3C1010.9,657.3,1009,655.4,1009,653L1009,620.3C1009,617.9,1010.9,616,1013.3,616L1053.2,616C1055.6,616,1057.5,617.9,1057.5,620.3L1057.5,653C1057.5,655.3,1055.6,657.3,1053.2,657.3Z" fill="rgb(77,77,77)" stroke="none" stroke-width="1"/><path id="typing-loader-css-path21" d="M1116.6,657.3L1076.7,657.3C1074.3,657.3,1072.4,655.4,1072.4,653L1072.4,620.3C1072.4,617.9,1074.3,616,1076.7,616L1116.6,616C1119,616,1120.9,617.9,1120.9,620.3L1120.9,653C1121,655.3,1119,657.3,1116.6,657.3Z" fill="rgb(77,77,77)" stroke="none" stroke-width="1"/><path id="typing-loader-css-path22" d="M1180.1,657.3L1140.2,657.3C1137.8,657.3,1135.9,655.4,1135.9,653L1135.9,620.3C1135.9,617.9,1137.8,616,1140.2,616L1180.1,616C1182.5,616,1184.4,617.9,1184.4,620.3L1184.4,653C1184.4,655.3,1182.5,657.3,1180.1,657.3Z" fill="rgb(77,77,77)" stroke="none" stroke-width="1"/><path id="typing-loader-css-path23" d="M1283.7,657.3L1205.2,657.3C1201.9,657.3,1199.3,654.6,1199.3,651.4L1199.3,621.9C1199.3,618.6,1202,616,1205.2,616L1283.7,616C1287,616,1289.6,618.7,1289.6,621.9L1289.6,651.4C1289.6,654.6,1286.9,657.3,1283.7,657.3Z" fill="rgb(77,77,77)" stroke="none" stroke-width="1"/><path id="typing-loader-css-path24" d="M747.5,713.7L643.1,713.7C639.4,713.7,636.3,710.7,636.3,706.9L636.3,679.1C636.3,675.4,639.3,672.3,643.1,672.3L747.5,672.3C751.2,672.3,754.3,675.3,754.3,679.1L754.3,706.9C754.3,710.7,751.2,713.7,747.5,713.7Z" fill="rgb(77,77,77)" stroke="none" stroke-width="1"/><path id="typing-loader-css-path25" d="M820.7,713.7L780.8,713.7C778.4,713.7,776.5,711.8,776.5,709.4L776.5,676.7C776.5,674.3,778.4,672.4,780.8,672.4L820.7,672.4C823.1,672.4,825,674.3,825,676.7L825,709.4C825,711.7,823.1,713.7,820.7,713.7Z" fill="rgb(77,77,77)" stroke="none" stroke-width="1"/><path id="typing-loader-css-path26" d="M680.6,771.3L640.7,771.3C638.3,771.3,636.4,769.4,636.4,767L636.4,734.3C636.4,731.9,638.3,730,640.7,730L680.6,730C683,730,684.9,731.9,684.9,734.3L684.9,767C684.9,769.3,683,771.3,680.6,771.3Z" fill="rgb(77,77,77)" stroke="none" stroke-width="1"/><path id="typing-loader-css-path27" d="M747.9,771.3L708,771.3C705.6,771.3,703.7,769.4,703.7,767L703.7,734.3C703.7,731.9,705.6,730,708,730L747.9,730C750.3,730,752.2,731.9,752.2,734.3L752.2,767C752.2,769.3,750.3,771.3,747.9,771.3Z" fill="rgb(77,77,77)" stroke="none" stroke-width="1"/><path id="typing-loader-css-path28" d="M811.4,771.3L771.5,771.3C769.1,771.3,767.2,769.4,767.2,767L767.2,734.3C767.2,731.9,769.1,730,771.5,730L811.4,730C813.8,730,815.7,731.9,815.7,734.3L815.7,767C815.7,769.3,813.8,771.3,811.4,771.3Z" fill="rgb(77,77,77)" stroke="none" stroke-width="1"/><path id="typing-loader-css-path29" d="M1108.5,771.3L1068.6,771.3C1066.2,771.3,1064.3,769.4,1064.3,767L1064.3,734.3C1064.3,731.9,1066.2,730,1068.6,730L1108.5,730C1110.9,730,1112.8,731.9,1112.8,734.3L1112.8,767C1112.8,769.3,1110.9,771.3,1108.5,771.3Z" fill="rgb(77,77,77)" stroke="none" stroke-width="1"/><path id="typing-loader-css-path30" d="M1174.4,771.3L1134.5,771.3C1132.1,771.3,1130.2,769.4,1130.2,767L1130.2,734.3C1130.2,731.9,1132.1,730,1134.5,730L1174.4,730C1176.8,730,1178.7,731.9,1178.7,734.3L1178.7,767C1178.8,769.3,1176.8,771.3,1174.4,771.3Z" fill="rgb(77,77,77)" stroke="none" stroke-width="1"/><path id="typing-loader-css-path31" d="M1283.6,771.3L1202.2,771.3C1198.9,771.3,1196.2,768.6,1196.2,765.3L1196.2,736C1196.2,732.7,1198.9,730,1202.2,730L1283.6,730C1286.9,730,1289.6,732.7,1289.6,736L1289.6,765.3C1289.6,768.6,1286.9,771.3,1283.6,771.3Z" fill="rgb(77,77,77)" stroke="none" stroke-width="1"/><path id="typing-loader-css-path32" d="M1036.4,771.3L839.8,771.3C834.8,771.3,830.7,767.2,830.7,762.2L830.7,739.1C830.7,734.1,834.8,730,839.8,730L1036.4,730C1041.4,730,1045.5,734.1,1045.5,739.1L1045.5,762.2C1045.6,767.2,1041.5,771.3,1036.4,771.3Z" fill="rgb(77,77,77)" stroke="none" stroke-width="1"/><path id="typing-loader-css-path33" d="M883.1,713.7L843.2,713.7C840.8,713.7,838.9,711.8,838.9,709.4L838.9,676.7C838.9,674.3,840.8,672.4,843.2,672.4L883.1,672.4C885.5,672.4,887.4,674.3,887.4,676.7L887.4,709.4C887.5,711.7,885.5,713.7,883.1,713.7Z" fill="rgb(77,77,77)" stroke="none" stroke-width="1"/><path id="typing-loader-css-path34" d="M945.5,713.7L905.6,713.7C903.2,713.7,901.3,711.8,901.3,709.4L901.3,676.7C901.3,674.3,903.2,672.4,905.6,672.4L945.5,672.4C947.9,672.4,949.8,674.3,949.8,676.7L949.8,709.4C949.9,711.7,947.9,713.7,945.5,713.7Z" fill="rgb(77,77,77)" stroke="none" stroke-width="1"/><path id="typing-loader-css-path35" d="M1007.9,713.7L968,713.7C965.6,713.7,963.7,711.8,963.7,709.4L963.7,676.7C963.7,674.3,965.6,672.4,968,672.4L1007.9,672.4C1010.3,672.4,1012.2,674.3,1012.2,676.7L1012.2,709.4C1012.3,711.7,1010.3,713.7,1007.9,713.7Z" fill="rgb(77,77,77)" stroke="none" stroke-width="1"/><path id="typing-loader-css-path36" d="M1070.3,713.7L1030.4,713.7C1028,713.7,1026.1,711.8,1026.1,709.4L1026.1,676.7C1026.1,674.3,1028,672.4,1030.4,672.4L1070.3,672.4C1072.7,672.4,1074.6,674.3,1074.6,676.7L1074.6,709.4C1074.7,711.7,1072.7,713.7,1070.3,713.7Z" fill="rgb(77,77,77)" stroke="none" stroke-width="1"/><path id="typing-loader-css-path37" d="M1132.7,713.7L1092.8,713.7C1090.4,713.7,1088.5,711.8,1088.5,709.4L1088.5,676.7C1088.5,674.3,1090.4,672.4,1092.8,672.4L1132.7,672.4C1135.1,672.4,1137,674.3,1137,676.7L1137,709.4C1137.1,711.7,1135.1,713.7,1132.7,713.7Z" fill="rgb(77,77,77)" stroke="none" stroke-width="1"/><path id="typing-loader-css-path38" d="M1195.2,713.7L1155.3,713.7C1152.9,713.7,1151,711.8,1151,709.4L1151,676.7C1151,674.3,1152.9,672.4,1155.3,672.4L1195.2,672.4C1197.6,672.4,1199.5,674.3,1199.5,676.7L1199.5,709.4C1199.5,711.7,1197.6,713.7,1195.2,713.7Z" fill="rgb(77,77,77)" stroke="none" stroke-width="1"/><path id="typing-loader-css-path39" d="M1284.2,713.7L1218.8,713.7C1215.8,713.7,1213.4,711.3,1213.4,708.3L1213.4,677.8C1213.4,674.8,1215.8,672.4,1218.8,672.4L1284.2,672.4C1287.2,672.4,1289.6,674.8,1289.6,677.8L1289.6,708.3C1289.6,711.3,1287.2,713.7,1284.2,713.7Z" fill="rgb(77,77,77)" stroke="none" stroke-width="1"/></g><path id="typing-loader-css-path40" d="M1025.3,971L898.4,971L898.4,971C898.4,965.6,902.8,961.2,908.2,961.2L1015.4,961.2C1020.9,961.2,1025.3,965.6,1025.3,971L1025.3,971Z" fill="rgb(204,204,204)" stroke="none" stroke-width="1"/><circle id="typing-loader-css-webcam" r="9.3" transform="matrix(1 0 0 1 954.8 134.1)" fill="rgb(102,102,102)" stroke="none" stroke-width="1"/></g><g id="typing-loader-css-right-hand_to" transform="translate(1216.324768,974.887299)"><g id="typing-loader-css-right-hand_tr" transform="rotate(0)"><g id="typing-loader-css-right-hand" transform="translate(-1216.324768,-974.887299)"><path id="typing-loader-css-shadow" d="M1360.2,1334.5L1380,1329.2L1284.4,974.6L1287.9,973.6C1291,972.8,1292.8,969.6,1291.9,966.6L1276.7,910.1C1275.9,907,1272.7,905.2,1269.7,906.1L1246.4,912.4L1235.7,872.7L1235.5,872.8L1228.6,842.8C1228.6,842.8,1254,819.4,1249.1,776.8C1244.3,734.6,1243.9,729.1,1243.9,729L1241.2,683.8L1227.5,633.7C1226,623.8,1218.3,616.7,1210.2,617.9L1210.2,617.9C1202.1,619.1,1196.8,628.1,1198.3,638L1211.8,686.2L1213.7,716.2C1212.5,715.8,1211.3,715.4,1210.1,715L1199.9,662.6L1177.4,615.6C1174.4,606,1164.3,600.6,1154.7,603.6L1154.7,603.6C1145.1,606.6,1139.7,616.7,1142.7,626.3L1164.6,671.5L1171.7,707.8C1169.5,707.7,1167.2,707.7,1165,707.8L1154.8,664.1L1134.5,614.7C1131.5,605.1,1121.4,599.7,1111.8,602.7L1111.8,602.7C1102.2,605.7,1096.8,615.8,1099.8,625.4L1120.5,676.3L1129,713C1126.9,713.5,1124.8,714,1122.9,714.5L1087,597.9C1084,588.3,1073.9,582.9,1064.3,585.9C1054.7,588.9,1049.3,599,1052.3,608.6L1088.3,725.3L1113.2,804.2L1095,789.5L1064.3,751.8C1056.3,744.3,1043.7,744.6,1036.2,752.6L1036.2,752.6C1028.7,760.6,1029,773.2,1037,780.7L1068.4,818.6L1134.5,872.6L1134.6,872.5L1142.7,898L1142.9,897.9L1153.5,937.3L1129.7,943.7C1126.6,944.5,1124.8,947.7,1125.7,950.7L1140.9,1007.2C1141.7,1010.3,1144.9,1012.1,1147.9,1011.2L1152.3,1010L1247.9,1364.6L1267.3,1359.4L1267.3,1359.4L1321.5,1344.8L1321.5,1344.8L1322.7,1344.5L1342.1,1339.3L1342.1,1339.3L1347.2,1337.9L1347.2,1337.9L1360.2,1334.5L1360.2,1334.5Z" opacity="0.1" fill="rgb(0,0,0)" stroke="none" stroke-width="1"/><g id="typing-loader-css-thumb_to" transform="translate(1118.370667,809.370667)"><g id="typing-loader-css-thumb_tr" transform="rotate(0)"><path id="typing-loader-css-thumb" d="M1183.9,843.6L1156.6,872.5L1090.5,818.5L1059.1,780.6C1051.1,773.1,1050.7,760.5,1058.3,752.5L1058.3,752.5C1065.8,744.5,1078.4,744.1,1086.4,751.7L1117.1,789.4L1183.9,843.6Z" transform="translate(-1118.370667,-809.370667)" fill="rgb(255,205,148)" stroke="none" stroke-width="1"/></g></g><g id="typing-loader-css-index-finger_to" transform="translate(1109.235413,655.185364)"><g id="typing-loader-css-index-finger_tr" transform="rotate(0)"><path id="typing-loader-css-index-finger" d="M1145,714.6L1110.3,725.3L1074.3,608.6C1071.3,599,1076.7,588.8,1086.3,585.9L1086.3,585.9C1095.9,582.9,1106.1,588.3,1109,597.9L1145,714.6Z" transform="translate(-1109.235413,-655.185364)" fill="rgb(255,205,148)" stroke="none" stroke-width="1"/></g></g><g id="typing-loader-css-middle-finger_to" transform="translate(1156.785461,671.835358)"><g id="typing-loader-css-middle-finger_tr" transform="rotate(0)"><g id="typing-loader-css-middle-finger_ts" transform="scale(1,1)"><path id="typing-loader-css-middle-finger" d="M1192.5,731.3L1157.8,742L1142.6,676.1L1121.9,625.2C1118.9,615.6,1124.3,605.4,1133.9,602.5L1133.9,602.5C1143.5,599.5,1153.7,604.9,1156.6,614.5L1176.9,663.9L1192.5,731.3Z" transform="translate(-1156.785461,-671.835358)" fill="rgb(255,205,148)" stroke="none" stroke-width="1"/></g></g></g><g id="typing-loader-css-ring-finger_to" transform="translate(1199.635437,672.685364)"><g id="typing-loader-css-ring-finger_tr" transform="rotate(0)"><path id="typing-loader-css-ring-finger" d="M1235.4,732.1L1200.7,742.8L1186.6,671.3L1164.7,626.1C1161.7,616.5,1167.1,606.3,1176.7,603.4L1176.7,603.4C1186.3,600.4,1196.5,605.8,1199.4,615.4L1221.9,662.4L1235.4,732.1Z" transform="translate(-1199.635437,-672.685364)" fill="rgb(255,205,148)" stroke="none" stroke-width="1"/></g></g><g id="typing-loader-css-pinkie-finger_to" transform="translate(1243.824829,688.183899)"><g id="typing-loader-css-pinkie-finger_tr" transform="rotate(0)"><path id="typing-loader-css-pinkie-finger" d="M1267.6,754.3L1238.4,758.7L1233.8,686.1L1220.3,637.9C1218.8,628,1224.2,619,1232.2,617.8L1232.2,617.8C1240.3,616.6,1248,623.7,1249.5,633.6L1263.2,683.7L1267.6,754.3Z" transform="translate(-1243.824829,-688.183899)" fill="rgb(255,205,148)" stroke="none" stroke-width="1"/></g></g><path id="typing-loader-css-palm" d="M1110.3,725.3L1164.8,898L1257.7,873.3L1250.7,842.6C1250.7,842.6,1276.1,819.2,1271.2,776.6C1266.3,734,1266,728.8,1266,728.8C1266,728.8,1222.6,705.6,1185.3,707.9C1148,710.2,1110.3,725.3,1110.3,725.3Z" fill="rgb(255,205,148)" stroke="none" stroke-width="1"/><g id="typing-loader-css-forearm"><rect id="typing-loader-css-rect2" width="96.1" height="478.4" rx="0" ry="0" transform="matrix(-0.9656 0.2602 -0.2602 -0.9656 1382.183416 1334.516859)" fill="rgb(255,205,148)" stroke="none" stroke-width="1"/><rect id="typing-loader-css-rect3" width="136.7" height="367.3" rx="0" ry="0" transform="matrix(-0.9656 0.2602 -0.2602 -0.9656 1401.866929 1329.136187)" fill="rgb(184,0,0)" stroke="none" stroke-width="1"/><path id="typing-loader-css-path41" d="M1170,1011.3L1309.9,973.6C1313,972.8,1314.8,969.6,1313.9,966.6L1298.7,910.1C1297.9,907,1294.7,905.2,1291.7,906.1L1151.8,943.8C1148.7,944.6,1146.9,947.8,1147.8,950.8L1163,1007.3C1163.8,1010.3,1167,1012.1,1170,1011.3Z" fill="rgb(184,0,0)" stroke="none" stroke-width="1"/><ellipse id="typing-loader-css-ellipse1" rx="11.3" ry="11.3" transform="matrix(0.9656 -0.2602 0.2602 0.9656 1184.561839 971.099451)" fill="rgb(139,0,0)" stroke="none" stroke-width="1"/><rect id="typing-loader-css-rect4" width="136.7" height="16.9" rx="0" ry="0" transform="matrix(-0.9656 0.2602 -0.2602 -0.9656 1310.747102 990.807462)" fill="rgb(162,0,0)" stroke="none" stroke-width="1"/><rect id="typing-loader-css-rect5" width="5.2" height="366.9" rx="0" ry="0" transform="matrix(-0.9656 0.2602 -0.2602 -0.9656 1389.901276 1332.42724)" fill="rgb(139,0,0)" stroke="none" stroke-width="1"/><rect id="typing-loader-css-rect6" width="5.2" height="366.9" rx="0" ry="0" transform="matrix(-0.9656 0.2602 -0.2602 -0.9656 1369.282082 1337.943737)" fill="rgb(139,0,0)" stroke="none" stroke-width="1"/><rect id="typing-loader-css-rect7" width="5.2" height="366.9" rx="0" ry="0" transform="matrix(-0.9656 0.2602 -0.2602 -0.9656 1348.566327 1343.496254)" fill="rgb(139,0,0)" stroke="none" stroke-width="1"/><rect id="typing-loader-css-rect8" width="5.2" height="366.9" rx="0" ry="0" transform="matrix(-0.9656 0.2602 -0.2602 -0.9656 1327.973153 1349.109311)" fill="rgb(139,0,0)" stroke="none" stroke-width="1"/><rect id="typing-loader-css-rect9" width="5.2" height="366.9" rx="0" ry="0" transform="matrix(-0.9656 0.2602 -0.2602 -0.9656 1307.257398 1354.651827)" fill="rgb(139,0,0)" stroke="none" stroke-width="1"/><rect id="typing-loader-css-rect10" width="5.2" height="366.9" rx="0" ry="0" transform="matrix(-0.9656 0.2602 -0.2602 -0.9656 1286.638204 1360.178324)" fill="rgb(139,0,0)" stroke="none" stroke-width="1"/></g></g></g></g><g id="typing-loader-css-left-hand_to" transform="translate(758.299316,1010.78537)"><g id="typing-loader-css-left-hand_tr" transform="rotate(0)"><g id="typing-loader-css-left-hand" transform="translate(-758.299316,-1010.78537)"><path id="typing-loader-css-shadow2" d="M938.4,788.1L938.4,788.1C930.9,780.1,918.3,779.7,910.3,787.3L879.6,825L861.4,839.7L886.3,760.8L922.3,644.1C925.3,634.5,919.9,624.3,910.3,621.4L910.3,621.4C900.7,618.4,890.5,623.8,887.6,633.4L851.7,750C849.7,749.5,847.6,749,845.6,748.5L854.1,711.8L874.8,660.9C877.8,651.3,872.4,641.1,862.8,638.2C853.2,635.3,843,640.6,840.1,650.2L819.8,699.6L809.6,743.3C807.4,743.2,805.1,743.2,802.9,743.3L810,707L831.9,661.8C834.9,652.2,829.5,642,819.9,639.1C810.3,636.2,800.1,641.5,797.2,651.1L774.7,698.1L764.5,750.5C763.3,750.9,762.1,751.3,760.9,751.7L762.8,721.7L776.3,673.5C777.8,663.6,772.4,654.6,764.4,653.4C756.3,652.2,748.6,659.3,747.1,669.2L733.4,719.3L730.7,764.5L730.7,764.5C730.7,764.5,730.4,769.7,725.5,812.3C720.6,854.9,746,878.3,746,878.3L739,909L739,909L728.4,948.5L705.1,942.2C702,941.4,698.9,943.2,698.1,946.2L682.9,1002.7C682.1,1005.8,683.9,1008.9,686.9,1009.7L690.4,1010.7L686,1027L686,1027L594.8,1365.3L606.8,1368.5L606.8,1368.5L611.9,1369.9L611.9,1369.9L614.6,1370.6L614.6,1370.6L627.5,1374.1L627.5,1374.1L632.6,1375.5L632.6,1375.5L648.2,1379.7L648.2,1379.7L653.3,1381.1L653.3,1381.1L668.1,1385.1L668.9,1385.3L668.9,1385.3L674,1386.7L674,1386.7L727,1401L822.6,1046.4L827,1047.6C830.1,1048.4,833.2,1046.6,834,1043.6L849.2,987.1C850,984,848.2,980.9,845.2,980.1L821.4,973.7L832.1,934L794.2,923.8L832.1,933.9L840.2,908.4L840.3,908.5L906.4,854.5L937.8,816.6C945.6,808.7,945.9,796.1,938.4,788.1Z" opacity="0.1" fill="rgb(0,0,0)" stroke="none" stroke-width="1"/><g id="typing-loader-css-thumb2_to" transform="translate(856.22934,844.970703)"><g id="typing-loader-css-thumb2_tr" transform="rotate(0)"><path id="typing-loader-css-thumb2" d="M790.7,879.2L818,908.1L884.1,854.1L915.5,816.2C923.5,808.7,923.9,796.1,916.3,788.1L916.3,788.1C908.8,780.1,896.2,779.7,888.2,787.3L857.6,825L790.7,879.2Z" transform="translate(-856.22934,-844.970703)" fill="rgb(255,205,148)" stroke="none" stroke-width="1"/></g></g><g id="typing-loader-css-index-finger2_to" transform="translate(865.364594,700.7854)"><g id="typing-loader-css-index-finger2_tr" transform="rotate(5.044275)"><path id="typing-loader-css-index-finger2" d="M829.6,750.2L864.3,760.9L900.3,644.2C903.3,634.6,897.9,624.4,888.3,621.5L888.3,621.5C878.7,618.5,868.5,623.9,865.6,633.5L829.6,750.2Z" transform="translate(-865.364594,-690.7854)" fill="rgb(255,205,148)" stroke="none" stroke-width="1"/></g></g><g id="typing-loader-css-middle-finger2_to" transform="translate(817.814606,707.435394)"><path id="typing-loader-css-middle-finger2" d="M782.1,766.9L816.8,777.6L832,711.7L852.7,660.8C855.7,651.2,850.3,641,840.7,638.1L840.7,638.1C831.1,635.1,820.9,640.5,818,650.1L797.7,699.5L782.1,766.9Z" transform="translate(-817.814606,-707.435394)" fill="rgb(255,205,148)" stroke="none" stroke-width="1"/></g><g id="typing-loader-css-ring-finger2_to" transform="translate(774.96463,708.335388)"><g id="typing-loader-css-ring-finger2_tr" transform="rotate(0)"><path id="typing-loader-css-ring-finger2" d="M739.2,767.7L773.9,778.4L788,707L809.9,661.8C812.9,652.2,807.5,642,797.9,639.1L797.9,639.1C788.3,636.1,778.1,641.5,775.2,651.1L752.7,698.1L739.2,767.7Z" transform="translate(-774.96463,-708.335388)" fill="rgb(255,205,148)" stroke="none" stroke-width="1"/></g></g><g id="typing-loader-css-pinkie-finger2_to" transform="translate(730.775177,723.783936)"><g id="typing-loader-css-pinkie-finger2_tr" transform="rotate(0)"><path id="typing-loader-css-pinkie-finger2" d="M707,789.9L736.2,794.3L740.8,721.7L754.3,673.5C755.8,663.6,750.4,654.6,742.4,653.4L742.4,653.4C734.3,652.2,726.6,659.3,725.1,669.2L711.4,719.3L707,789.9Z" transform="translate(-730.775177,-723.783936)" fill="rgb(255,205,148)" stroke="none" stroke-width="1"/></g></g><path id="typing-loader-css-palm2" d="M864.3,760.9L809.8,933.6L716.9,908.9L723.9,878.2C723.9,878.2,698.5,854.8,703.4,812.2C708.3,769.6,708.6,764.4,708.6,764.4C708.6,764.4,752,741.2,789.3,743.5C826.6,745.7,864.3,760.9,864.3,760.9Z" fill="rgb(255,205,148)" stroke="none" stroke-width="1"/><g id="typing-loader-css-forearm2"><rect id="typing-loader-css-wrist" width="96.1" height="478.4" rx="0" ry="0" transform="matrix(0.9656 0.2602 -0.2602 0.9656 716.97788 908.784736)" fill="rgb(255,205,148)" stroke="none" stroke-width="1"/><rect id="typing-loader-css-rect11" width="136.7" height="367.3" rx="0" ry="0" transform="matrix(0.9656 0.2602 -0.2602 0.9656 668.327601 1010.701745)" fill="rgb(184,0,0)" stroke="none" stroke-width="1"/><path id="typing-loader-css-path42" d="M804.7,1047.4L664.8,1009.7C661.7,1008.9,659.9,1005.7,660.8,1002.7L676,946.2C676.8,943.1,680,941.3,683,942.2L822.9,979.9C826,980.7,827.8,983.9,826.9,986.9L811.7,1043.4C810.9,1046.4,807.8,1048.2,804.7,1047.4Z" fill="rgb(184,0,0)" stroke="none" stroke-width="1"/><ellipse id="typing-loader-css-ellipse2" rx="11.3" ry="11.3" transform="matrix(0.2602 -0.9656 0.9656 0.2602 790.354294 1007.245628)" fill="rgb(139,0,0)" stroke="none" stroke-width="1"/><rect id="typing-loader-css-rect12" width="136.7" height="16.9" rx="0" ry="0" transform="matrix(0.9656 0.2602 -0.2602 0.9656 668.352774 1010.67747)" fill="rgb(162,0,0)" stroke="none" stroke-width="1"/><rect id="typing-loader-css-rect13" width="5.2" height="366.9" rx="0" ry="0" transform="matrix(0.9656 0.2602 -0.2602 0.9656 680.199806 1014.388542)" fill="rgb(139,0,0)" stroke="none" stroke-width="1"/><rect id="typing-loader-css-rect14" width="5.2" height="366.9" rx="0" ry="0" transform="matrix(0.9656 0.2602 -0.2602 0.9656 700.915632 1019.903485)" fill="rgb(139,0,0)" stroke="none" stroke-width="1"/><rect id="typing-loader-css-rect15" width="5.2" height="366.9" rx="0" ry="0" transform="matrix(0.9656 0.2602 -0.2602 0.9656 721.509877 1025.488969)" fill="rgb(139,0,0)" stroke="none" stroke-width="1"/><rect id="typing-loader-css-rect16" width="5.2" height="366.9" rx="0" ry="0" transform="matrix(0.9656 0.2602 -0.2602 0.9656 742.199683 1031.099472)" fill="rgb(139,0,0)" stroke="none" stroke-width="1"/><rect id="typing-loader-css-rect17" width="5.2" height="366.9" rx="0" ry="0" transform="matrix(0.9656 0.2602 -0.2602 0.9656 762.818949 1036.588395)" fill="rgb(139,0,0)" stroke="none" stroke-width="1"/><rect id="typing-loader-css-rect18" width="5.2" height="366.9" rx="0" ry="0" transform="matrix(0.9656 0.2602 -0.2602 0.9656 783.509754 1042.199898)" fill="rgb(139,0,0)" stroke="none" stroke-width="1"/></g></g></g></g></svg>